<?xml version="1.0" encoding="UTF-8" standalone="no"?>
<!-- Created with Inkscape (http://www.inkscape.org/) -->

<svg
   width="597.81818"
   height="120"
   viewBox="0 0 158.17273 31.749999"
   version="1.1"
   id="svg1"
   inkscape:version="1.3.2 (091e20e, 2023-11-25)"
   sodipodi:docname="wide-logo.svg"
   inkscape:export-filename="images/wide-logo.png"
   inkscape:export-xdpi="96"
   inkscape:export-ydpi="96"
   xmlns:inkscape="http://www.inkscape.org/namespaces/inkscape"
   xmlns:sodipodi="http://sodipodi.sourceforge.net/DTD/sodipodi-0.dtd"
   xmlns="http://www.w3.org/2000/svg"
   xmlns:svg="http://www.w3.org/2000/svg">
  <sodipodi:namedview
     id="namedview1"
     pagecolor="#505050"
     bordercolor="#ffffff"
     borderopacity="1"
     inkscape:showpageshadow="0"
     inkscape:pageopacity="0"
     inkscape:pagecheckerboard="1"
     inkscape:deskcolor="#505050"
     inkscape:document-units="px"
     inkscape:zoom="1.2050994"
     inkscape:cx="76.757151"
     inkscape:cy="148.12056"
     inkscape:window-width="1312"
     inkscape:window-height="844"
     inkscape:window-x="0"
     inkscape:window-y="25"
     inkscape:window-maximized="0"
     inkscape:current-layer="layer1" />
  <defs
     id="defs1" />
  <g
     inkscape:label="Layer 1"
     inkscape:groupmode="layer"
     id="layer1">
    <text
       xml:space="preserve"
       style="font-style:normal;font-variant:normal;font-weight:300;font-stretch:normal;font-size:18.4801px;line-height:1.2;font-family:Manrope;-inkscape-font-specification:'Manrope Light';letter-spacing:1.76168px;fill:#000000;stroke:#000000;stroke-width:1.76168;paint-order:markers stroke fill"
       x="6.7488322"
       y="24.0196"
       id="text5"
       transform="scale(1.0985462,0.91029399)"><tspan
         sodipodi:role="line"
         x="6.7488322"
         y="24.0196"
         id="tspan7"
         style="font-style:normal;font-variant:normal;font-weight:300;font-stretch:normal;font-size:18.4801px;line-height:1.2;font-family:Manrope;-inkscape-font-specification:'Manrope Light';stroke-width:1.76168">ART   F HEMP</tspan></text>
    <text
       xml:space="preserve"
       style="font-weight:bold;font-size:65.264px;font-family:'.Apple Color Emoji UI';-inkscape-font-specification:'.Apple Color Emoji UI Bold';fill:none;stroke:#000000;stroke-width:2.64583;paint-order:markers stroke fill"
       x="-45.620152"
       y="-105.24649"
       id="text3"><tspan
         sodipodi:role="line"
         id="tspan3"
         style="stroke-width:2.64583"
         x="-45.620152"
         y="-105.24649" /></text>
    <rect
       style="fill:none;stroke:#000000;stroke-width:2.4824;stroke-miterlimit:3.9;stroke-dasharray:none;paint-order:markers stroke fill"
       id="rect3"
       width="155.58817"
       height="29.099224"
       x="1.286818"
       y="1.2607771" />
    <path
       sodipodi:type="star"
       style="fill:#000000;stroke:none;stroke-width:10;paint-order:markers stroke fill"
       id="path9"
       inkscape:flatsided="false"
       sodipodi:sides="26"
       sodipodi:cx="-451.9407"
       sodipodi:cy="124.55058"
       sodipodi:r1="212.9288"
       sodipodi:r2="95.817963"
       sodipodi:arg1="0.73219398"
       sodipodi:arg2="0.85302447"
       inkscape:rounded="-3.469447e-18"
       inkscape:randomized="-1.3877788e-17"
       d="m -293.58353,266.89411 -95.33694,-70.16644 56.67033,103.92755 -75.77469,-90.94315 30.15211,114.4697 -51.80871,-106.43459 1.88156,118.35929 -24.83178,-115.74042 -26.49835,115.37027 3.58829,-118.31984 -53.33828,105.67634 31.79982,-114.02295 -77.07837,89.8409 58.16325,-103.09946 -96.33895,68.78423 81.14645,-86.1842 -110.00065,43.73006 99.4137,-64.26023 -117.26952,16.13447 111.9034,-38.60168 -117.72311,-12.39881 117.88968,-10.69975 -111.33507,-40.211502 117.02465,17.824007 -98.47663,-65.687253 109.35855,45.311904 -79.89509,-87.345501 95.33694,70.166437 -56.67033,-103.927545 75.7747,90.943152 -30.15211,-114.469699 51.8087,106.434581 -1.88155,-118.35929 24.83177,115.74042 26.49835,-115.370269 -3.58829,118.319847 53.33828,-105.676348 -31.79981,114.022953 77.07836,-89.840901 -58.16325,103.09946 96.33895,-68.784227 -81.14645,86.184201 110.00065,-43.730065 -99.4137,64.26023 117.26952,-16.13447 -111.9034,38.601688 117.72311,12.3988 -117.88968,10.69976 111.33507,40.2115 -117.02464,-17.82401 98.47663,65.68725 -109.35856,-45.3119 z"
       inkscape:transform-center-x="0.013097727"
       inkscape:transform-center-y="-0.0074677299"
       transform="matrix(0.03133849,0,0,0.03133849,75.749183,11.81822)" />
  </g>
</svg>
